<svg xmlns="http://www.w3.org/2000/svg"><symbol id="balance" viewBox="0 0 512 512"><path d="M478.6 113.8V88.2H280.2v-38h-48.4v38H33.4v25.6h66.9v86L47.4 321.7H5.5v4.4c0 27.8 43.5 49.6 99.2 49.6s99.2-21.8 99.2-49.6v-4.4H162l-53-121.9v-86h122.8v277.3c-16.1 2.9-28.6 8-35.3 14.7-4.2 4.2-3.5 14.7-2.1 23h-18.9v33h161v-33h-18.9c1-7.5 1.8-18.1-1.8-22.7-7.7-9.5-22.9-13.8-35.6-15.7V113.8H403v86l-53 121.9h-41.9v4.4c0 27.8 43.5 49.6 99.2 49.6s99.2-21.8 99.2-49.6v-4.4h-41.9l-53-121.9v-86z"/></symbol><symbol id="fb" viewBox="0 0 512 512"><path fill="#385c8e" d="M139.5 272.1h54v222.3a7.9 7.9 0 0 0 8 7.9h91.6a7.9 7.9 0 0 0 7.9-7.9V273.1h62.1a7.8 7.8 0 0 0 7.9-6.9l9.4-81.8a7.9 7.9 0 0 0-7-8.8H301v-51.5c0-15.5 8.3-23.3 24.7-23.3h46.8a7.9 7.9 0 0 0 7.9-8V17.7a7.9 7.9 0 0 0-7.8-8h-67.5a123.7 123.7 0 0 0-80.8 30.4 84.8 84.8 0 0 0-28.1 75.3v60h-56.7a8 8 0 0 0-8 7.9v80.8a7.9 7.9 0 0 0 7.9 8z"/></symbol><symbol id="detox" viewBox="0 0 512 512"><path d="M458.9 195.3c-5.7-102.1-88.7-185-190.7-191.4-117.4-7-215.6 86.8-215.6 202.9a203 203 0 0 0 68.9 152.4c5.1 4.5 13.4 1.3 14-5.1.7-2.6-.6-5.7-2.5-7.7-42.1-37-67-91.8-62.5-153C76.8 100.9 152.1 26.2 244 20.5c108.4-7 199 79.1 199 186.3a178.7 178.7 0 0 1-9.6 58.6c-1.3 3.2-.6 6.4 1.9 8.3 4.5 4.5 12.1 3.2 14-3.2a193 193 0 0 0 9.6-75.2z"/><path d="M406 266.1v-11.5c0-26.8-7.7-58.1-24.3-89.3a144.1 144.1 0 0 0-125.6-73.4c-79.1 0-143.5 64.5-143.5 143.6a143.3 143.3 0 0 0 44.6 103.9v.7l-5.1 160.7c0 3.8 2.6 7 6.4 7l140.9.7a6.4 6.4 0 0 0 6.4-6.4v-64.4a8.1 8.1 0 0 1 7-7.7l60-7c15.9-1.9 28.7-14.7 30-30.6l.6-5.1v-2l.7-51 19.7-5.1a12.3 12.3 0 0 0 7.7-17.8zm-35.1-12.8a9.6 9.6 0 1 1 9.6-9.6 9.4 9.4 0 0 1-9.6 9.6z"/></symbol><symbol id="search" viewBox="0 0 512 512"><circle cx="205.8" cy="206.7" r="186" fill="none" stroke="#000" stroke-linecap="round" stroke-linejoin="round" stroke-width="31.58"/><path fill="none" stroke="#000" stroke-linecap="round" stroke-linejoin="round" stroke-width="31.58" d="M336 339.4l151.9 151.9"/></symbol><symbol id="star" viewBox="0 0 512 512"><path fill="none" stroke="#000" stroke-linecap="round" stroke-linejoin="round" stroke-width="29.75" d="M256 31.2l73.1 148L492.4 203 374.2 318l27.9 162.7L256 403.9l-146.1 76.9 27.9-162.7-118.2-115 163.3-23.8z"/></symbol><symbol id="hamburger-menu" viewBox="0 0 512 512"><rect width="512" height="66.25" y="70" rx="33.1"/><rect width="512" height="66.25" y="222.9" rx="33.1"/><rect width="512" height="66.25" y="375.8" rx="33.1"/></symbol><symbol id="twitter" viewBox="0 0 512 512"><path fill="#03a9f4" d="M495.5 107.5a202.4 202.4 0 0 1-56.6 15.5 98 98 0 0 0 43.2-54.3 194.2 194.2 0 0 1-62.3 23.8A98.6 98.6 0 0 0 252.3 182 277.7 277.7 0 0 1 49.9 79.3a98.3 98.3 0 0 0 30.2 131.3 97.1 97.1 0 0 1-44.4-12.1v1a98.6 98.6 0 0 0 78.7 96.5 102 102 0 0 1-25.8 3.3 88.5 88.5 0 0 1-18.5-1.7 99.1 99.1 0 0 0 91.7 68.4 196.6 196.6 0 0 1-121.7 41.8 168.9 168.9 0 0 1-23.6-1.3 277.4 277.4 0 0 0 150.7 44.1c153.2 1 278.4-122.3 279.4-275.6v-3.8c0-4.4-.1-8.6-.3-12.7a198.8 198.8 0 0 0 49.2-51z"/></symbol><symbol id="success" viewBox="0 0 512 512"><path d="M429.9 84.9l16-21.3a8.9 8.9 0 0 0 0-10.7l-16-21.4h44.5v53.4zm7 80.1h65.3v151.3h-26.7a8.9 8.9 0 0 0-6.3 2.6l-32.9 33h-37.2l-28.8-28.8zM9.1 503.2l68.7-145 144.9 145zm165.5-73.3l81.6-195.7 132.9 133.4a9.1 9.1 0 0 0 6.3 2.1h44.5a8.6 8.6 0 0 0 6.3-2.6l33-33h23v124.6h-31.9L410.7 399a8.8 8.8 0 0 0-7.5-2.5 8.7 8.7 0 0 0-6.5 4.3L337 503.2h-89zm327.6 73.3H357.5l48.7-83.5 54.1 54.2a9.4 9.4 0 0 0 6.3 2.6h35.6zM481.9 31.5h15.7v126.4h-15.7z"/></symbol><symbol id="user" viewBox="0 0 512 512"><path fill="none" stroke="#000" stroke-miterlimit="10" stroke-width="24.52" d="M20.5 416.9c5-15.8 17.8-26.1 33.5-31 22.3-7 45.2-12 67.6-18.6a245.2 245.2 0 0 0 39.2-14.4c28.2-13.9 32.8-33.9 19.7-62.5a970 970 0 0 1-38.9-97.2c-10.1-30.2-10.5-61.8-2.2-93.1 11.9-45.3 45.9-75.8 92.8-82.2 34.1-4.6 66.6-1.2 95.4 19.6 43.1 30.8 51.2 75.3 46.1 123.5-4.6 44.7-21 86.1-42 125.7-18 33.9-11.2 55.4 24.5 69.3 23.4 9.1 48.2 14.5 72.3 21.6 9.9 2.9 20.2 5.1 29.6 9.2 18.3 7.9 31.8 20.6 34 41.7s4.3 44.3 6.5 67.4H13.5s-1.1-53.6 7-79z"/></symbol><symbol id="cart" viewBox="0 0 512 512"><path fill="none" stroke="#000" stroke-linecap="round" stroke-linejoin="round" stroke-width="24.61" d="M489.8 477.5H22.2l36.9-443h393.8l36.9 443z"/><path fill="none" stroke="#000" stroke-linecap="round" stroke-linejoin="round" stroke-width="24.61" d="M366.7 96c0 81.6-49.5 147.7-110.7 147.7S145.3 177.6 145.3 96"/></symbol><symbol id="hamburger-close" viewBox="0 0 512 512"><rect width="512" height="66.25" x="1.2" y="221.7" rx="33.1" transform="rotate(45 257.273 254.766)"/><rect width="512" height="66.25" x="-1.2" y="224.1" rx="33.1" transform="rotate(-45 254.766 257.273)"/></symbol><symbol id="creative" viewBox="0 0 512 512"><path d="M279.3 477.9l35.3-207c-2.2-4.3-7.8-12.6-14.7-14.6-3.5-1-7-.3-10.7 2.1-5.9 3.8-9.8 10.8-13.5 17.7-4.8 8.6-9.7 17.6-19.1 17.6s-14.3-9-19.1-17.6c-3.8-6.9-7.6-13.9-13.6-17.8-3.7-2.3-7.2-3-10.7-2-6.9 2-12.5 10.3-14.7 14.6l35.2 207zM205.9 510h101.3v-23.1H205.9V510z"/><path d="M256.5 90.9C181.2 90.9 120 150.6 120 224c0 37.2 11.8 54.4 26.7 76.2 20.9 30.5 46.8 68.4 47.5 177.7h30.4l-35.3-207a4.6 4.6 0 0 1 .4-2.6c.3-.7 7.9-16.8 21-20.7 6-1.7 12.1-.7 18.1 3.2 7.9 5 12.5 13.5 16.6 20.9s7.1 13 11.2 13 7.3-6 11.1-13 8.8-15.9 16.6-20.9c6-3.9 12.1-4.9 18.2-3.1 13 3.8 20.6 19.9 20.9 20.6a3.9 3.9 0 0 1 .3 2.6l-35.2 207h29.2c.7-110.1 27-147.2 48.2-177.2 15.2-21.5 27.2-38.5 27.2-76.7 0-73.4-61.2-133.1-136.6-133.1zm-1.8-30.4a4.6 4.6 0 0 0 4.5-4.5V6.5a4.6 4.6 0 0 0-9.1 0V56a4.6 4.6 0 0 0 4.6 4.5zm-89.6 21.4a4.6 4.6 0 0 0 3.9 2.3 4.6 4.6 0 0 0 2.3-.6 4.5 4.5 0 0 0 1.6-6.2l-24.7-42.9a4.5 4.5 0 0 0-7.8 4.5zM61.6 122.1l42.9 24.7a4.6 4.6 0 0 0 2.2.6 4.4 4.4 0 0 0 3.9-2.2 4.5 4.5 0 0 0-1.6-6.2l-42.9-24.7a4.3 4.3 0 0 0-6.1 1.6 4.5 4.5 0 0 0 1.6 6.2zm27.3 106.8a4.5 4.5 0 0 0-4.5-4.5H34.9a4.5 4.5 0 0 0 0 9h49.5a4.5 4.5 0 0 0 4.5-4.5zm16.9 81.7L63 335.4a4.5 4.5 0 0 0-1.7 6.1 4.6 4.6 0 0 0 3.9 2.3 4.6 4.6 0 0 0 2.3-.6l42.8-24.8a4.6 4.6 0 0 0 1.7-6.2 4.6 4.6 0 0 0-6.2-1.6zM338.4 82.2a4.6 4.6 0 0 0 2.2.6 4.3 4.3 0 0 0 3.9-2.3l24.8-42.9a4.5 4.5 0 0 0-7.8-4.5L336.7 76a4.6 4.6 0 0 0 1.7 6.2zm65.5 62.9a4.6 4.6 0 0 0 2.3-.6l42.9-24.8a4.4 4.4 0 0 0 1.6-6.1 4.6 4.6 0 0 0-6.2-1.7l-42.8 24.8a4.6 4.6 0 0 0-1.7 6.2 4.7 4.7 0 0 0 3.9 2.2zm73.2 76.6h-49.5a4.5 4.5 0 0 0 0 9h49.5a4.5 4.5 0 0 0 0-9zM450.4 333l-42.8-24.7a4.5 4.5 0 1 0-4.5 7.8l42.8 24.8a4.6 4.6 0 0 0 2.2.6 4.5 4.5 0 0 0 2.3-8.5z"/></symbol><symbol id="love" viewBox="0 0 512 512"><path d="M203.6 12.3A85.6 85.6 0 0 0 174 23.5c-20.5 12.5-32.1 31-38.2 44.3l-1.7 3.7-4.1-.2c-14.7-.6-36.5 1.3-56.9 13.7a86.9 86.9 0 0 0-23.6 21.3c-15.2 19.9-11.2 45.5 11 70.3 28.1 31.3 84.6 58.5 133.8 47.6l4.3-1 169.1 277.3 103.9-63.4-20.9-34.2-69.6 42.5-8.3-13.5 49.7-30.2-20.9-34.3-49.6 30.3-118.2-193.6 3.3-3.4c36-36.6 40.5-103.2 24-146.4-11.8-31.2-32.8-46.5-57.5-42z"/></symbol></svg>