<svg id="Layer_1" data-name="Layer 1" xmlns="http://www.w3.org/2000/svg" width="16" height="16" viewBox="0 0 16 16"><title>logo-16</title><path d="M1.4,5.1h.9c.2,0,.2.1.2.2s-.1.1-.2.1H2c-.1,0-.2,0-.2.2V9.7a1.9,1.9,0,0,1-.5,1.4l-.7.4c-.2,0-.2-.1-.2-.2s-.1-.1,0-.1a.9.9,0,0,0,.4-.8A4.9,4.9,0,0,0,.9,9.2V5.6c0-.2,0-.2-.2-.2H.4c-.1,0-.1,0-.1-.1s0-.2.1-.2Z" fill="#231f20"/><path d="M9.8,9.9H9.7c-.2,0-.2,0-.2-.2V4.8c0-.1,0-.2-.1-.2H8c-.1,0-.1.1-.1.2a.1.1,0,0,0,.1.1h.6V6.9H8.5a1.9,1.9,0,0,0-1-.3,1.9,1.9,0,0,0-1.4.9A2.2,2.2,0,0,0,6,9a1.8,1.8,0,0,0,.4.9,1.8,1.8,0,0,0,2.1.1h.1v.2H10C10,9.9,10,9.9,9.8,9.9ZM8.5,9.5a.9.9,0,0,1-.9.4c-.3,0-.5-.3-.6-.5A2.8,2.8,0,0,1,7,7.6a.8.8,0,0,1,1-.5h.2c.3.1.4.2.4.6V9.3C8.6,9.4,8.6,9.5,8.5,9.5Z" fill="#231f20"/><path d="M5.9,9.8c-.1,0-.1-.1-.2,0H5.5c-.1,0-.1-.1-.1-.2h0V7.9a1.2,1.2,0,0,0-.8-1.1A3,3,0,0,0,3,6.9c-.2.2-.4.3-.4.6s.1.5.4.5.4-.1.5-.3a.8.8,0,0,0-.2-.5L3.9,7a.6.6,0,0,1,.6.5v1H4.4a2,2,0,0,0-1.3-.1c-.4.1-.7.3-.7.7a.9.9,0,0,0,.3.9,1.4,1.4,0,0,0,1.8-.1h.1a.8.8,0,0,0,1.2.1C5.9,10,6,9.9,5.9,9.8ZM4.4,9.7l-.6.2c-.4,0-.5-.2-.5-.6s.2-.7.6-.7a.5.5,0,0,1,.6.6A.9.9,0,0,1,4.4,9.7Z" fill="#231f20"/><path d="M15.5,7.4a1.3,1.3,0,0,0-1-.7,1.8,1.8,0,0,0-1.4.4,1.5,1.5,0,0,0-.7,1.3,1.6,1.6,0,0,0,.4,1.2,1.4,1.4,0,0,0,1.2.6,1.9,1.9,0,0,0,1.6-.5c.1-.1.1-.1,0-.2h-.2a1.1,1.1,0,0,1-.7.3c-.6.1-1,0-1.2-.6a1.7,1.7,0,0,1-.1-.7h2.3C15.7,7.9,15.7,7.6,15.5,7.4Zm-.8.7H13.4a.9.9,0,0,1,.5-.9.6.6,0,0,1,.9.5V8Z" fill="#231f20"/><polygon points="10.2 7 11.1 6.2 11.8 6.8 11.9 9.4 11.4 9.8 10.9 9.9 10.4 9.6 10.2 7" fill="none" stroke="#000" stroke-miterlimit="10" stroke-width="0.13"/><polygon points="10.5 7.1 10.8 7.6 11.5 7.5 11.6 6.9 11.1 6.2 10.5 7.1" fill="none" stroke="#000" stroke-miterlimit="10" stroke-width="0.13"/><line x1="10.2" y1="7" x2="10.5" y2="7.1" fill="none" stroke="#000" stroke-miterlimit="10" stroke-width="0.13"/><line x1="11.6" y1="6.9" x2="11.8" y2="6.8" fill="none" stroke="#000" stroke-miterlimit="10" stroke-width="0.13"/><polyline points="11.2 10.4 10.9 9.9 10.8 7.6" fill="none" stroke="#000" stroke-miterlimit="10" stroke-width="0.13"/><polyline points="10.4 9.6 11.2 10.4 11.9 9.4" fill="none" stroke="#000" stroke-miterlimit="10" stroke-width="0.13"/><polyline points="11.5 7.5 11.4 9.8 11.2 10.4" fill="none" stroke="#000" stroke-miterlimit="10" stroke-width="0.13"/></svg>