<svg id="Layer_1" data-name="Layer 1" xmlns="http://www.w3.org/2000/svg" width="64" height="64" viewBox="0 0 64 64"><title>logo-64</title><path d="M6.4,19.3h3.7c.5,0,.5.2.5.6s-.1.6-.5.5a5.7,5.7,0,0,1-1.3,0c-.5,0-.7.2-.7.6.1,3.5.1,6.9.1,10.3s0,3.7-.1,5.6a6.6,6.6,0,0,1-2,5.3,8.1,8.1,0,0,1-2.8,1.7c-.6.1-.6-.4-.8-.6s-.2-.4.1-.6,1.5-1.9,1.7-3.2a20.7,20.7,0,0,0,.2-4.3V21.1c0-.5-.1-.7-.6-.7a4.8,4.8,0,0,1-1.2,0c-.5.1-.6-.1-.6-.5s.1-.6.6-.6Z" fill="#231f20"/><path d="M39,37.8h-.5c-.6.1-.8-.1-.8-.7V17.9c0-.3.1-.6-.4-.6H32.1c-.5,0-.5.3-.5.6s0,.6.5.6a10.8,10.8,0,0,1,1.8,0c.2,0,.4,0,.4.4v7.3c0,.3,0,.4-.4.2a6.6,6.6,0,0,0-3.9-.8,5.8,5.8,0,0,0-5.1,3.3,8,8,0,0,0-.7,5.5,5.9,5.9,0,0,0,1.7,3.2,6.5,6.5,0,0,0,7.9.5l.4-.2c.2.1.1.3.1.5s.1.5.5.5h4.4c.3,0,.5,0,.5-.4S39.5,37.7,39,37.8Zm-5-1.4a3.8,3.8,0,0,1-3.7,1.4,2.8,2.8,0,0,1-2.1-2,11.6,11.6,0,0,1,0-6.9A2.9,2.9,0,0,1,32,27l.8.2c1.3.5,1.5.9,1.5,2.3v5.9A1.7,1.7,0,0,1,34,36.4Z" fill="#231f20"/><path d="M23.8,37.6c-.2-.3-.5-.6-.8-.1s-.5.4-.8.2-.3-.4-.3-.7V30.2c0-2.2-.9-3.6-2.9-4.2a8,8,0,0,0-6.1.3,2.7,2.7,0,0,0-1.8,2.4c-.1,1,.5,1.6,1.6,1.8a2,2,0,0,0,1.9-1.3,2,2,0,0,0-.8-1.9,4.9,4.9,0,0,1,2.3-.6c1.2.1,2.1.7,2.2,1.8a26.4,26.4,0,0,1,.1,4c-.1-.1-.2,0-.2-.1a6.7,6.7,0,0,0-5.2-.5,3.3,3.3,0,0,0-2.8,2.6,3.8,3.8,0,0,0,1.2,3.6,5.9,5.9,0,0,0,7-.1c.1-.2.3-.5.6-.1s3.6,1.5,4.7.4S24.2,37.9,23.8,37.6Zm-5.7-.8a4,4,0,0,1-2.2,1c-1.5,0-2.2-.9-2.2-2.5a2.1,2.1,0,0,1,2.4-2.4c1.7,0,2.4.7,2.4,2.3S18.6,36.4,18.1,36.8Z" fill="#231f20"/><path d="M61.1,28a4.8,4.8,0,0,0-3.9-2.5,7.5,7.5,0,0,0-5.6,1.3A6,6,0,0,0,49.1,32a6.2,6.2,0,0,0,1.6,4.7A6.4,6.4,0,0,0,55.1,39a6.9,6.9,0,0,0,6.2-2.1c.3-.3.3-.5,0-.8a.6.6,0,0,0-.9,0,4.6,4.6,0,0,1-2.7,1.5,3.8,3.8,0,0,1-4.5-2.3,7.9,7.9,0,0,1-.5-3c0-.4.1-.5.5-.5h8.2c.3,0,.5,0,.5-.3A6.9,6.9,0,0,0,61.1,28Zm-3.2,2.7H53.3c-.2,0-.4,0-.4-.2a3.8,3.8,0,0,1,1.9-3.6c1.6-.6,3-.1,3.4,2.1a5.3,5.3,0,0,1,.1,1.3C58.4,30.6,58.2,30.7,57.9,30.7Z" fill="#231f20"/><polygon points="40.6 26.6 43.9 23.3 46.8 25.9 46.9 35.9 45.3 37.4 43.2 37.8 41.1 36.8 40.6 26.6" fill="none" stroke="#000" stroke-miterlimit="10" stroke-width="0.52"/><polygon points="41.5 27 42.7 28.8 45.3 28.7 46 26.4 43.9 23.6 41.5 27" fill="none" stroke="#000" stroke-miterlimit="10" stroke-width="0.52"/><line x1="40.6" y1="26.6" x2="41.5" y2="27" fill="none" stroke="#000" stroke-miterlimit="10" stroke-width="0.52"/><line x1="46" y1="26.4" x2="46.8" y2="25.9" fill="none" stroke="#000" stroke-miterlimit="10" stroke-width="0.52"/><polyline points="44.2 39.9 43.2 37.8 42.7 28.8" fill="none" stroke="#000" stroke-miterlimit="10" stroke-width="0.52"/><polyline points="41.1 36.8 44.2 39.9 46.9 35.9" fill="none" stroke="#000" stroke-miterlimit="10" stroke-width="0.52"/><polyline points="45.3 28.7 45.3 37.4 44.2 39.9" fill="none" stroke="#000" stroke-miterlimit="10" stroke-width="0.52"/></svg>