<svg id="Layer_1" data-name="Layer 1" xmlns="http://www.w3.org/2000/svg" width="32" height="32" viewBox="0 0 32 32"><title>logo-32</title><path d="M2.8,12.4H4.7c.3,0,.3.1.3.3s0,.3-.3.3H4q-.3-.1-.3.3v5.3a26.2,26.2,0,0,1,0,2.8,3.6,3.6,0,0,1-1,2.8,3.6,3.6,0,0,1-1.5.8c-.3.1-.3-.1-.4-.3s-.1-.2.1-.3a2,2,0,0,0,.9-1.6,16.2,16.2,0,0,0,.1-2.2V13.3q0-.5-.3-.3H.9a.3.3,0,1,1,0-.6Z" fill="#231f20"/><path d="M19.6,21.9h-.3c-.3,0-.4-.1-.4-.4V11.7c0-.2.1-.3-.2-.3H16c-.2,0-.2.1-.2.3s0,.3.2.3h1c.1,0,.2,0,.2.2v3.7c0,.2,0,.3-.2.2a3.5,3.5,0,0,0-2-.5,3.3,3.3,0,0,0-2.7,1.7,3.9,3.9,0,0,0-.3,2.8,2.6,2.6,0,0,0,.9,1.7,3.5,3.5,0,0,0,4.1.3c0-.1.1-.2.1-.1s.1.1.1.2,0,.3.3.3h2.2c.2,0,.2-.1.2-.3S19.9,21.9,19.6,21.9ZM17,21.2a2.2,2.2,0,0,1-1.9.7,1.3,1.3,0,0,1-1-1,5.5,5.5,0,0,1,0-3.6,1.5,1.5,0,0,1,1.9-1l.4.2c.7.2.8.4.8,1.1v3.1C17.2,20.9,17.1,21,17,21.2Z" fill="#231f20"/><path d="M11.8,21.8c-.1-.2-.3-.3-.4-.1a.4.4,0,0,1-.4.2c-.2-.1-.2-.2-.2-.4V18a2,2,0,0,0-1.5-2.2,4.1,4.1,0,0,0-3.1.2,1.5,1.5,0,0,0-1,1.2,1,1,0,0,0,.9,1c.4,0,.9-.4.9-.7a.9.9,0,0,0-.4-1l1.2-.3a1.1,1.1,0,0,1,1.2.9,14.7,14.7,0,0,1,0,2.1H8.9a3.2,3.2,0,0,0-2.7-.2,1.7,1.7,0,0,0-1.4,1.3A1.8,1.8,0,0,0,5.4,22,3,3,0,0,0,9,22c.1-.1.2-.3.3,0a1.6,1.6,0,0,0,2.4.2C11.8,22.1,12,22,11.8,21.8Zm-3-.4a1.6,1.6,0,0,1-1.1.5c-.7,0-1.1-.4-1.1-1.3a1.1,1.1,0,0,1,1.2-1.2c.9,0,1.3.4,1.3,1.2S9.1,21.2,8.8,21.4Z" fill="#231f20"/><path d="M31,16.9a2.7,2.7,0,0,0-2-1.3,3.7,3.7,0,0,0-2.9.6,3.2,3.2,0,0,0-1.3,2.7,3.8,3.8,0,0,0,.8,2.5,3.8,3.8,0,0,0,2.3,1.1,3.3,3.3,0,0,0,3.2-1.1c.1-.1.1-.2,0-.4a.5.5,0,0,0-.5,0,2.5,2.5,0,0,1-1.4.8,1.9,1.9,0,0,1-2.3-1.2,3.9,3.9,0,0,1-.2-1.5c-.1-.2,0-.3.2-.3h4.2c.2,0,.3,0,.3-.2A3.3,3.3,0,0,0,31,16.9Zm-1.7,1.4a4.8,4.8,0,0,0-1.2,0H26.9l-.2-.2a2.2,2.2,0,0,1,1-1.8,1.3,1.3,0,0,1,1.8,1V18C29.6,18.2,29.5,18.3,29.3,18.3Z" fill="#231f20"/><polygon points="20.4 16.1 22.1 14.5 23.6 15.8 23.7 20.9 22.8 21.7 21.8 21.9 20.7 21.4 20.4 16.1" fill="none" stroke="#000" stroke-miterlimit="10" stroke-width="0.27"/><polygon points="20.9 16.4 21.5 17.3 22.9 17.2 23.2 16 22.1 14.6 20.9 16.4" fill="none" stroke="#000" stroke-miterlimit="10" stroke-width="0.27"/><line x1="20.4" y1="16.1" x2="20.9" y2="16.4" fill="none" stroke="#000" stroke-miterlimit="10" stroke-width="0.27"/><line x1="23.2" y1="16" x2="23.6" y2="15.8" fill="none" stroke="#000" stroke-miterlimit="10" stroke-width="0.27"/><polyline points="22.3 23 21.8 21.9 21.5 17.3" fill="none" stroke="#000" stroke-miterlimit="10" stroke-width="0.27"/><polyline points="20.7 21.4 22.3 23 23.7 20.9" fill="none" stroke="#000" stroke-miterlimit="10" stroke-width="0.27"/><polyline points="22.9 17.2 22.8 21.7 22.3 23" fill="none" stroke="#000" stroke-miterlimit="10" stroke-width="0.27"/></svg>