<svg id="Layer_1" data-name="Layer 1" xmlns="http://www.w3.org/2000/svg" width="256" height="116" viewBox="0 0 256 116"><title>logo</title><path d="M20.4,11.2c5.1,0,10.3.1,15.4-.1,2.2,0,2.2,1,2.3,2.7s-.5,2.3-2.2,2.2-3.8.1-5.6-.1-2.6.6-2.6,2.6c.1,14.3,0,28.5,0,42.8,0,7.8.2,15.6,0,23.4s-1.9,16.2-8.5,22.2a31.5,31.5,0,0,1-11.9,6.8c-2.3.8-2.2-1.3-3-2.3s-1-1.8.3-2.5c5.2-2.9,6.3-8,7.2-13.2s.6-12.1.6-18.2c.1-19.7.1-39.3.1-59,0-2-.4-2.8-2.5-2.6s-3.4-.1-5.1.1-2.4-.5-2.4-2.3.6-2.6,2.5-2.6C10.1,11.3,15.3,11.2,20.4,11.2Z" fill="#231f20"/><path d="M156.6,88.4c-.8.1-1.6-.1-2.3,0-2.4.4-3.2-.4-3.2-3,.1-13.3.1-26.5.1-39.8V5.3c0-1.1.3-2.3-1.7-2.3-7.3.1-14.6.1-21.8,0-2,0-1.9,1.1-1.9,2.5s0,2.3,1.8,2.2,5,0,7.4,0,2,.2,2,1.6V39.9c0,1.1-.2,1.9-1.6,1a29.1,29.1,0,0,0-16.6-3.5c-9.5.8-16.8,5.2-21.3,13.7s-4.2,15.1-2.7,23a25.1,25.1,0,0,0,7,13.7c8.6,8.5,24.4,8.2,33.2,1.9.5-.4.9-1.1,1.5-.8s.5,1.3.4,1.9.5,2.4,2.3,2.3h18c1.4,0,2.1-.3,2.1-2S158.8,88.1,156.6,88.4Zm-21.1-5.9c-4.1,4.7-9.1,7-15.3,5.8-4.6-.8-7.2-4.1-8.6-8.2a46.9,46.9,0,0,1,0-28.7c2.2-7.1,8.4-10.2,15.6-8.3a22.4,22.4,0,0,1,3.4,1.1c5.5,2.2,6.4,3.5,6.4,9.5v11c0,4.6-.1,9.1,0,13.6A5.7,5.7,0,0,1,135.5,82.5Z" fill="#231f20"/><path d="M93.2,87.4c-1.1-1-2.1-2.3-3.6-.3a2.5,2.5,0,0,1-3.2,1c-1.1-.5-1.3-1.7-1.3-2.9a17.6,17.6,0,0,0,0-2.3c0-8.8.1-17.6,0-26.4S81.3,41.7,72.9,39a33.4,33.4,0,0,0-25.4,1.6c-4.1,1.9-7.4,4.7-7.6,9.8s2.3,6.8,7,7.6,7-2.6,7.6-5.5-.8-5.9-3.2-8.1a23.7,23.7,0,0,1,9.8-2.3c5,.2,8.6,3,9.2,7.6s.2,10.9.3,16.4h-.9c-7-4.1-14.4-4.2-21.9-2.2-5.6,1.4-10.2,4.8-11.4,10.8s.2,10.9,4.9,14.9c7.7,6.5,21.5,6.4,29.1-.4.7-.7,1.4-2,2.4-.2,4.1,7.3,15.2,6.2,19.7,1.6C93.3,89.7,94.9,88.8,93.2,87.4ZM69.1,84.3c-2.8,2.2-5.6,4-9.2,4.1-6,0-9.1-3.6-9-10.6s3.4-9.7,10.1-9.7,9.9,2.9,9.9,9.4C70.8,79.9,71.5,82.4,69.1,84.3Z" fill="#231f20"/><path d="M248.7,47.5c-3.4-6.4-9.1-9.5-16.1-10.4s-16.3.2-23.4,5.3-10.5,13.1-10.7,22c-.1,7.2,1.7,14,6.7,19.6a28.4,28.4,0,0,0,18.5,9.4c9.9,1.1,18.8-1.3,25.9-8.7,1.2-1.2,1.4-2,0-3.3s-2.4-1.2-3.7.1a21.5,21.5,0,0,1-11.1,5.9c-8.5,1.6-15.3-.9-18.9-9.6a34.2,34.2,0,0,1-2.1-12.3c-.1-1.6.5-2,2-2h17c5.8,0,11.6-.1,17.4,0,1.1,0,1.9-.1,1.9-1.6A29,29,0,0,0,248.7,47.5ZM235.5,58.8H216.1c-.8,0-1.5.1-1.7-1-.9-4.6,3.5-13.3,8-15,6.8-2.5,12.4-.1,14.2,8.7.3,1.8.4,3.7.7,5.5S236.9,58.9,235.5,58.8Z" fill="#231f20"/><polygon points="163.4 41.5 176.8 28 189 38.9 189.6 80.5 182.8 86.6 174.2 88.4 165.3 84.2 163.4 41.5" fill="none" stroke="#000" stroke-miterlimit="10" stroke-width="2.17"/><polygon points="166.9 43.5 172 50.8 183 50.3 185.8 40.7 176.9 29 166.9 43.5" fill="none" stroke="#000" stroke-miterlimit="10" stroke-width="2.17"/><line x1="163.4" y1="41.5" x2="166.9" y2="43.5" fill="none" stroke="#000" stroke-miterlimit="10" stroke-width="2.17"/><line x1="185.8" y1="40.7" x2="189" y2="38.9" fill="none" stroke="#000" stroke-miterlimit="10" stroke-width="2.17"/><polyline points="178.4 97 174.2 88.4 172 50.8" fill="none" stroke="#000" stroke-miterlimit="10" stroke-width="2.17"/><polyline points="165.3 84.2 178.4 97 189.6 80.5" fill="none" stroke="#000" stroke-miterlimit="10" stroke-width="2.17"/><polyline points="183 50.3 182.8 86.6 178.4 97" fill="none" stroke="#000" stroke-miterlimit="10" stroke-width="2.17"/></svg>